<mxfile host="app.diagrams.net" modified="2023-09-13T00:24:37.346Z" agent="Mozilla/5.0 (X11; Linux x86_64) AppleWebKit/537.36 (KHTML, like Gecko) Chrome/114.0.0.0 Safari/537.36" etag="K_D0dZrIOnyNKCJp7uZM" version="21.7.4" type="github">
  <diagram id="C5RBs43oDa-KdzZeNtuy" name="Page-1">
    <mxGraphModel dx="2261" dy="754" grid="1" gridSize="10" guides="1" tooltips="1" connect="1" arrows="1" fold="1" page="1" pageScale="1" pageWidth="827" pageHeight="1169" math="0" shadow="0">
      <root>
        <mxCell id="WIyWlLk6GJQsqaUBKTNV-0" />
        <mxCell id="WIyWlLk6GJQsqaUBKTNV-1" parent="WIyWlLk6GJQsqaUBKTNV-0" />
        <mxCell id="E_FX0O6t2X5vjsXRIca_-51" style="edgeStyle=orthogonalEdgeStyle;rounded=0;orthogonalLoop=1;jettySize=auto;html=1;exitX=0.25;exitY=1;exitDx=0;exitDy=0;" edge="1" parent="WIyWlLk6GJQsqaUBKTNV-1" source="WIyWlLk6GJQsqaUBKTNV-3" target="E_FX0O6t2X5vjsXRIca_-50">
          <mxGeometry relative="1" as="geometry" />
        </mxCell>
        <mxCell id="E_FX0O6t2X5vjsXRIca_-57" style="edgeStyle=orthogonalEdgeStyle;rounded=0;orthogonalLoop=1;jettySize=auto;html=1;exitX=0.5;exitY=1;exitDx=0;exitDy=0;entryX=0.571;entryY=-0.075;entryDx=0;entryDy=0;entryPerimeter=0;" edge="1" parent="WIyWlLk6GJQsqaUBKTNV-1" source="WIyWlLk6GJQsqaUBKTNV-3" target="E_FX0O6t2X5vjsXRIca_-2">
          <mxGeometry relative="1" as="geometry" />
        </mxCell>
        <mxCell id="E_FX0O6t2X5vjsXRIca_-58" style="edgeStyle=orthogonalEdgeStyle;rounded=0;orthogonalLoop=1;jettySize=auto;html=1;exitX=0.75;exitY=1;exitDx=0;exitDy=0;entryX=0.5;entryY=0;entryDx=0;entryDy=0;" edge="1" parent="WIyWlLk6GJQsqaUBKTNV-1" source="WIyWlLk6GJQsqaUBKTNV-3" target="WIyWlLk6GJQsqaUBKTNV-7">
          <mxGeometry relative="1" as="geometry" />
        </mxCell>
        <mxCell id="WIyWlLk6GJQsqaUBKTNV-3" value="READ_ONE_FILE READ_TWO_FILE" style="rounded=1;whiteSpace=wrap;html=1;fontSize=12;glass=0;strokeWidth=1;shadow=0;" parent="WIyWlLk6GJQsqaUBKTNV-1" vertex="1">
          <mxGeometry x="160" y="80" width="120" height="40" as="geometry" />
        </mxCell>
        <mxCell id="WIyWlLk6GJQsqaUBKTNV-7" value="ADAPTRIM_QC_ONE_FILE&lt;br&gt;ADAPTRIM_QC_TWO_FILE" style="rounded=1;whiteSpace=wrap;html=1;fontSize=12;glass=0;strokeWidth=1;shadow=0;" parent="WIyWlLk6GJQsqaUBKTNV-1" vertex="1">
          <mxGeometry x="354" y="170" width="166" height="40" as="geometry" />
        </mxCell>
        <mxCell id="E_FX0O6t2X5vjsXRIca_-56" style="edgeStyle=orthogonalEdgeStyle;rounded=0;orthogonalLoop=1;jettySize=auto;html=1;exitX=1;exitY=0.5;exitDx=0;exitDy=0;entryX=0;entryY=0.5;entryDx=0;entryDy=0;" edge="1" parent="WIyWlLk6GJQsqaUBKTNV-1" source="WIyWlLk6GJQsqaUBKTNV-11" target="E_FX0O6t2X5vjsXRIca_-55">
          <mxGeometry relative="1" as="geometry" />
        </mxCell>
        <mxCell id="WIyWlLk6GJQsqaUBKTNV-11" value="&lt;div&gt;ADAPTRIM_QUALTRIM_QC_ONE_FILE&lt;/div&gt;&lt;div&gt;ADAPTRIM_QUALTRIM_QC_TWO_FILE&lt;/div&gt;" style="rounded=1;whiteSpace=wrap;html=1;fontSize=12;glass=0;strokeWidth=1;shadow=0;" parent="WIyWlLk6GJQsqaUBKTNV-1" vertex="1">
          <mxGeometry x="430" y="375" width="230" height="40" as="geometry" />
        </mxCell>
        <mxCell id="WIyWlLk6GJQsqaUBKTNV-12" value="ADAPTRIM_QUALTRIM_ONE_U_FILE&lt;br style=&quot;border-color: var(--border-color);&quot;&gt;ADAPTRIM_QUALTRIM_TWO_U_FILE" style="rounded=1;whiteSpace=wrap;html=1;fontSize=12;glass=0;strokeWidth=1;shadow=0;" parent="WIyWlLk6GJQsqaUBKTNV-1" vertex="1">
          <mxGeometry x="10" y="270" width="230" height="40" as="geometry" />
        </mxCell>
        <mxCell id="E_FX0O6t2X5vjsXRIca_-14" style="edgeStyle=orthogonalEdgeStyle;rounded=0;orthogonalLoop=1;jettySize=auto;html=1;exitX=0.5;exitY=1;exitDx=0;exitDy=0;entryX=0.5;entryY=0;entryDx=0;entryDy=0;" edge="1" parent="WIyWlLk6GJQsqaUBKTNV-1" source="E_FX0O6t2X5vjsXRIca_-2" target="WIyWlLk6GJQsqaUBKTNV-12">
          <mxGeometry relative="1" as="geometry" />
        </mxCell>
        <mxCell id="E_FX0O6t2X5vjsXRIca_-15" style="edgeStyle=orthogonalEdgeStyle;rounded=0;orthogonalLoop=1;jettySize=auto;html=1;exitX=0.5;exitY=1;exitDx=0;exitDy=0;entryX=0.5;entryY=0;entryDx=0;entryDy=0;" edge="1" parent="WIyWlLk6GJQsqaUBKTNV-1" source="E_FX0O6t2X5vjsXRIca_-2" target="E_FX0O6t2X5vjsXRIca_-7">
          <mxGeometry relative="1" as="geometry" />
        </mxCell>
        <mxCell id="E_FX0O6t2X5vjsXRIca_-2" value="ADAPTRIM_ONE_FILE&lt;br style=&quot;border-color: var(--border-color);&quot;&gt;ADAPTRIM_TWO_FILE" style="rounded=1;whiteSpace=wrap;html=1;" vertex="1" parent="WIyWlLk6GJQsqaUBKTNV-1">
          <mxGeometry x="140" y="170" width="140" height="40" as="geometry" />
        </mxCell>
        <mxCell id="E_FX0O6t2X5vjsXRIca_-36" style="edgeStyle=orthogonalEdgeStyle;rounded=0;orthogonalLoop=1;jettySize=auto;html=1;exitX=0.25;exitY=1;exitDx=0;exitDy=0;entryX=0.419;entryY=-0.033;entryDx=0;entryDy=0;entryPerimeter=0;" edge="1" parent="WIyWlLk6GJQsqaUBKTNV-1" source="E_FX0O6t2X5vjsXRIca_-7" target="E_FX0O6t2X5vjsXRIca_-18">
          <mxGeometry relative="1" as="geometry" />
        </mxCell>
        <mxCell id="E_FX0O6t2X5vjsXRIca_-54" style="edgeStyle=orthogonalEdgeStyle;rounded=0;orthogonalLoop=1;jettySize=auto;html=1;exitX=0.5;exitY=1;exitDx=0;exitDy=0;entryX=0.19;entryY=0.013;entryDx=0;entryDy=0;entryPerimeter=0;" edge="1" parent="WIyWlLk6GJQsqaUBKTNV-1" source="E_FX0O6t2X5vjsXRIca_-7" target="WIyWlLk6GJQsqaUBKTNV-11">
          <mxGeometry relative="1" as="geometry" />
        </mxCell>
        <mxCell id="E_FX0O6t2X5vjsXRIca_-7" value="ADAPTRIM_QUALTRIM_ONE_P_FILE&lt;br&gt;ADAPTRIM_QUALTRIM_TWO_P_FILE" style="rounded=1;whiteSpace=wrap;html=1;fontSize=12;glass=0;strokeWidth=1;shadow=0;" vertex="1" parent="WIyWlLk6GJQsqaUBKTNV-1">
          <mxGeometry x="270" y="270" width="220" height="40" as="geometry" />
        </mxCell>
        <mxCell id="E_FX0O6t2X5vjsXRIca_-29" style="edgeStyle=orthogonalEdgeStyle;rounded=0;orthogonalLoop=1;jettySize=auto;html=1;exitX=0.5;exitY=1;exitDx=0;exitDy=0;entryX=0.346;entryY=-0.05;entryDx=0;entryDy=0;entryPerimeter=0;" edge="1" parent="WIyWlLk6GJQsqaUBKTNV-1" source="E_FX0O6t2X5vjsXRIca_-18" target="E_FX0O6t2X5vjsXRIca_-22">
          <mxGeometry relative="1" as="geometry">
            <Array as="points">
              <mxPoint x="329" y="410" />
            </Array>
          </mxGeometry>
        </mxCell>
        <mxCell id="E_FX0O6t2X5vjsXRIca_-33" style="edgeStyle=orthogonalEdgeStyle;rounded=0;orthogonalLoop=1;jettySize=auto;html=1;exitX=0.75;exitY=1;exitDx=0;exitDy=0;entryX=0.5;entryY=0;entryDx=0;entryDy=0;" edge="1" parent="WIyWlLk6GJQsqaUBKTNV-1" source="E_FX0O6t2X5vjsXRIca_-18" target="E_FX0O6t2X5vjsXRIca_-31">
          <mxGeometry relative="1" as="geometry">
            <Array as="points">
              <mxPoint x="360" y="410" />
              <mxPoint x="360" y="445" />
              <mxPoint x="515" y="445" />
            </Array>
          </mxGeometry>
        </mxCell>
        <mxCell id="E_FX0O6t2X5vjsXRIca_-53" style="edgeStyle=orthogonalEdgeStyle;rounded=0;orthogonalLoop=1;jettySize=auto;html=1;exitX=1;exitY=1;exitDx=0;exitDy=0;entryX=0.5;entryY=0;entryDx=0;entryDy=0;" edge="1" parent="WIyWlLk6GJQsqaUBKTNV-1" source="E_FX0O6t2X5vjsXRIca_-18" target="E_FX0O6t2X5vjsXRIca_-52">
          <mxGeometry relative="1" as="geometry">
            <Array as="points">
              <mxPoint x="380" y="410" />
              <mxPoint x="380" y="430" />
              <mxPoint x="720" y="430" />
            </Array>
          </mxGeometry>
        </mxCell>
        <mxCell id="E_FX0O6t2X5vjsXRIca_-18" value="ALIGNED_BAM_FILE" style="rounded=1;whiteSpace=wrap;html=1;fontSize=12;glass=0;strokeWidth=1;shadow=0;" vertex="1" parent="WIyWlLk6GJQsqaUBKTNV-1">
          <mxGeometry x="270" y="380" width="130" height="30" as="geometry" />
        </mxCell>
        <mxCell id="E_FX0O6t2X5vjsXRIca_-43" style="edgeStyle=orthogonalEdgeStyle;rounded=0;orthogonalLoop=1;jettySize=auto;html=1;exitX=0.5;exitY=1;exitDx=0;exitDy=0;" edge="1" parent="WIyWlLk6GJQsqaUBKTNV-1" source="E_FX0O6t2X5vjsXRIca_-22">
          <mxGeometry relative="1" as="geometry">
            <mxPoint x="200" y="580" as="targetPoint" />
          </mxGeometry>
        </mxCell>
        <mxCell id="E_FX0O6t2X5vjsXRIca_-22" value="PICARD_FILE" style="rounded=1;whiteSpace=wrap;html=1;fontSize=12;glass=0;strokeWidth=1;shadow=0;" vertex="1" parent="WIyWlLk6GJQsqaUBKTNV-1">
          <mxGeometry x="284" y="480" width="130" height="30" as="geometry" />
        </mxCell>
        <mxCell id="E_FX0O6t2X5vjsXRIca_-28" style="edgeStyle=orthogonalEdgeStyle;rounded=0;orthogonalLoop=1;jettySize=auto;html=1;entryX=0.5;entryY=0;entryDx=0;entryDy=0;" edge="1" parent="WIyWlLk6GJQsqaUBKTNV-1" source="E_FX0O6t2X5vjsXRIca_-23" target="E_FX0O6t2X5vjsXRIca_-25">
          <mxGeometry relative="1" as="geometry">
            <Array as="points">
              <mxPoint x="160" y="445" />
              <mxPoint x="210" y="445" />
            </Array>
          </mxGeometry>
        </mxCell>
        <mxCell id="E_FX0O6t2X5vjsXRIca_-34" style="edgeStyle=orthogonalEdgeStyle;rounded=0;orthogonalLoop=1;jettySize=auto;html=1;exitX=0.25;exitY=1;exitDx=0;exitDy=0;" edge="1" parent="WIyWlLk6GJQsqaUBKTNV-1" source="E_FX0O6t2X5vjsXRIca_-23" target="E_FX0O6t2X5vjsXRIca_-24">
          <mxGeometry relative="1" as="geometry">
            <Array as="points">
              <mxPoint x="140" y="410" />
              <mxPoint x="140" y="445" />
              <mxPoint x="75" y="445" />
            </Array>
          </mxGeometry>
        </mxCell>
        <mxCell id="E_FX0O6t2X5vjsXRIca_-49" style="edgeStyle=orthogonalEdgeStyle;rounded=0;orthogonalLoop=1;jettySize=auto;html=1;exitX=0.25;exitY=1;exitDx=0;exitDy=0;entryX=0.5;entryY=0;entryDx=0;entryDy=0;" edge="1" parent="WIyWlLk6GJQsqaUBKTNV-1" source="E_FX0O6t2X5vjsXRIca_-23" target="E_FX0O6t2X5vjsXRIca_-48">
          <mxGeometry relative="1" as="geometry">
            <Array as="points">
              <mxPoint x="113" y="430" />
              <mxPoint x="-65" y="430" />
            </Array>
          </mxGeometry>
        </mxCell>
        <mxCell id="E_FX0O6t2X5vjsXRIca_-23" value="REF_FNA_FILE" style="rounded=1;whiteSpace=wrap;html=1;fontSize=12;glass=0;strokeWidth=1;shadow=0;" vertex="1" parent="WIyWlLk6GJQsqaUBKTNV-1">
          <mxGeometry x="80" y="380" width="130" height="30" as="geometry" />
        </mxCell>
        <mxCell id="E_FX0O6t2X5vjsXRIca_-37" style="edgeStyle=orthogonalEdgeStyle;rounded=0;orthogonalLoop=1;jettySize=auto;html=1;exitX=0.25;exitY=1;exitDx=0;exitDy=0;" edge="1" parent="WIyWlLk6GJQsqaUBKTNV-1" source="E_FX0O6t2X5vjsXRIca_-24">
          <mxGeometry relative="1" as="geometry">
            <mxPoint x="200" y="580" as="targetPoint" />
          </mxGeometry>
        </mxCell>
        <mxCell id="E_FX0O6t2X5vjsXRIca_-24" value="REF_FNA_DICT" style="rounded=1;whiteSpace=wrap;html=1;fontSize=12;glass=0;strokeWidth=1;shadow=0;" vertex="1" parent="WIyWlLk6GJQsqaUBKTNV-1">
          <mxGeometry x="10" y="480" width="130" height="30" as="geometry" />
        </mxCell>
        <mxCell id="E_FX0O6t2X5vjsXRIca_-42" style="edgeStyle=orthogonalEdgeStyle;rounded=0;orthogonalLoop=1;jettySize=auto;html=1;exitX=0.5;exitY=1;exitDx=0;exitDy=0;" edge="1" parent="WIyWlLk6GJQsqaUBKTNV-1" source="E_FX0O6t2X5vjsXRIca_-25">
          <mxGeometry relative="1" as="geometry">
            <mxPoint x="200" y="580" as="targetPoint" />
            <Array as="points">
              <mxPoint x="200" y="510" />
            </Array>
          </mxGeometry>
        </mxCell>
        <mxCell id="E_FX0O6t2X5vjsXRIca_-25" value="REF_FNA_FAI" style="rounded=1;whiteSpace=wrap;html=1;fontSize=12;glass=0;strokeWidth=1;shadow=0;" vertex="1" parent="WIyWlLk6GJQsqaUBKTNV-1">
          <mxGeometry x="145" y="480" width="130" height="30" as="geometry" />
        </mxCell>
        <mxCell id="E_FX0O6t2X5vjsXRIca_-59" style="edgeStyle=orthogonalEdgeStyle;rounded=0;orthogonalLoop=1;jettySize=auto;html=1;exitX=0.5;exitY=1;exitDx=0;exitDy=0;" edge="1" parent="WIyWlLk6GJQsqaUBKTNV-1">
          <mxGeometry relative="1" as="geometry">
            <mxPoint x="201" y="650" as="targetPoint" />
            <mxPoint x="201" y="615" as="sourcePoint" />
            <Array as="points">
              <mxPoint x="201" y="630" />
              <mxPoint x="201" y="630" />
            </Array>
          </mxGeometry>
        </mxCell>
        <mxCell id="E_FX0O6t2X5vjsXRIca_-30" value="GVCFS_FILE" style="rounded=1;whiteSpace=wrap;html=1;fontSize=12;glass=0;strokeWidth=1;shadow=0;" vertex="1" parent="WIyWlLk6GJQsqaUBKTNV-1">
          <mxGeometry x="145" y="585" width="130" height="30" as="geometry" />
        </mxCell>
        <mxCell id="E_FX0O6t2X5vjsXRIca_-44" style="edgeStyle=orthogonalEdgeStyle;rounded=0;orthogonalLoop=1;jettySize=auto;html=1;exitX=0.5;exitY=1;exitDx=0;exitDy=0;" edge="1" parent="WIyWlLk6GJQsqaUBKTNV-1" source="E_FX0O6t2X5vjsXRIca_-31">
          <mxGeometry relative="1" as="geometry">
            <mxPoint x="200" y="580" as="targetPoint" />
          </mxGeometry>
        </mxCell>
        <mxCell id="E_FX0O6t2X5vjsXRIca_-31" value="INDEXED_ALIGNED_BAM_FILE" style="rounded=1;whiteSpace=wrap;html=1;fontSize=12;glass=0;strokeWidth=1;shadow=0;" vertex="1" parent="WIyWlLk6GJQsqaUBKTNV-1">
          <mxGeometry x="420" y="480" width="190" height="30" as="geometry" />
        </mxCell>
        <mxCell id="E_FX0O6t2X5vjsXRIca_-46" value="VCFS_FILE" style="rounded=1;whiteSpace=wrap;html=1;fontSize=12;glass=0;strokeWidth=1;shadow=0;" vertex="1" parent="WIyWlLk6GJQsqaUBKTNV-1">
          <mxGeometry x="145" y="650" width="130" height="30" as="geometry" />
        </mxCell>
        <mxCell id="E_FX0O6t2X5vjsXRIca_-48" value="REF_FNA_BAI(.bai)" style="rounded=1;whiteSpace=wrap;html=1;fontSize=12;glass=0;strokeWidth=1;shadow=0;" vertex="1" parent="WIyWlLk6GJQsqaUBKTNV-1">
          <mxGeometry x="-130" y="480" width="130" height="30" as="geometry" />
        </mxCell>
        <mxCell id="E_FX0O6t2X5vjsXRIca_-50" value="PREQC_ONE_FILE PREQC_TWO_FILE" style="rounded=1;whiteSpace=wrap;html=1;fontSize=12;glass=0;strokeWidth=1;shadow=0;" vertex="1" parent="WIyWlLk6GJQsqaUBKTNV-1">
          <mxGeometry x="-20" y="170" width="120" height="40" as="geometry" />
        </mxCell>
        <mxCell id="E_FX0O6t2X5vjsXRIca_-52" value="ALIGNED_BAM_FLAGSTAT_FILE" style="rounded=1;whiteSpace=wrap;html=1;fontSize=12;glass=0;strokeWidth=1;shadow=0;" vertex="1" parent="WIyWlLk6GJQsqaUBKTNV-1">
          <mxGeometry x="620" y="480" width="200" height="30" as="geometry" />
        </mxCell>
        <mxCell id="E_FX0O6t2X5vjsXRIca_-55" value="FASTSCREEN_LOGFILE&lt;br&gt;(and output)" style="rounded=1;whiteSpace=wrap;html=1;fontSize=12;glass=0;strokeWidth=1;shadow=0;" vertex="1" parent="WIyWlLk6GJQsqaUBKTNV-1">
          <mxGeometry x="720" y="375" width="160" height="40" as="geometry" />
        </mxCell>
      </root>
    </mxGraphModel>
  </diagram>
</mxfile>
